<?xml version="1.0" encoding="UTF-8"?>
<svg xmlns="http://www.w3.org/2000/svg" xmlns:xlink="http://www.w3.org/1999/xlink" viewBox="0 0 1028 1028">
  <defs>
    <style>
      .cls-1 {
        fill: none;
        stroke-width: 8px;
      }

      .cls-1, .cls-2 {
        stroke: #12121e;
        stroke-miterlimit: 10;
      }

      .cls-2 {
        fill: #0e0e1d;
        stroke-width: 4px;
      }

      .cls-3 {
        fill: url(#linear-gradient-2);
      }

      .cls-4 {
        fill: #fff;
      }

      .cls-5 {
        fill: url(#linear-gradient-4);
      }

      .cls-6 {
        fill: #3d51a3;
      }

      .cls-7 {
        fill: url(#linear-gradient-3);
      }

      .cls-8 {
        fill: url(#linear-gradient-5);
      }

      .cls-9 {
        fill: url(#linear-gradient);
      }

      .cls-10 {
        fill: #2d2d2d;
      }
    </style>
    <linearGradient id="linear-gradient" x1="545.7" y1="469.97" x2="702.66" y2="469.97" gradientUnits="userSpaceOnUse">
      <stop offset="0" stop-color="#ef4787"/>
      <stop offset=".21" stop-color="#ee4583"/>
      <stop offset=".41" stop-color="#ed4077"/>
      <stop offset=".6" stop-color="#eb3864"/>
      <stop offset=".79" stop-color="#e92c4a"/>
      <stop offset=".98" stop-color="#e61e27"/>
      <stop offset="1" stop-color="#e61c23"/>
    </linearGradient>
    <linearGradient id="linear-gradient-2" x1="548.95" y1="577.26" x2="681.35" y2="577.26" xlink:href="#linear-gradient"/>
    <linearGradient id="linear-gradient-3" x1="548.36" y1="294.56" x2="814.87" y2="294.56" xlink:href="#linear-gradient"/>
    <linearGradient id="linear-gradient-4" x1="548.11" y1="666.81" x2="710.07" y2="666.81" xlink:href="#linear-gradient"/>
    <linearGradient id="linear-gradient-5" x1="441.7" y1="823.75" x2="732.38" y2="823.75" xlink:href="#linear-gradient"/>
  </defs>
  <g id="Layer_3">
    <rect class="cls-2" x="2" y="2" width="1024" height="1024" rx="49.18" ry="49.18"/>
  </g>
  <g id="Layer_2">
    <g>
      <path class="cls-10" d="M301.28,176.63c-7.81,5.36-15.71,11.05-20.97,18.93-5.4,8.09-7.58,17.85-9.55,27.37-33.85,163.2-38.1,330.98-38.21,497.65,0,2.87.13,6.07,2.2,8.06,1.95,1.88,4.95,2.01,7.66,2.03,20.78.14,41.56.28,62.35.43,2.54.02,5.32-.05,7.24-1.7,1.99-1.71,2.43-4.57,2.74-7.18,16.26-137.97,17.55-277.7,3.84-415.95,32.31,97.51,61.51,201.06,41.15,301.74,22.65.14,45.3.27,67.94.41,3.92.02,8.12.13,11.3,2.41,4.31,3.09,5.28,9.01,5.62,14.31.57,8.79.38,17.63-.56,26.39-.32,2.99-.81,6.16-2.78,8.43-2,2.31-5.12,3.24-8.08,4-21.42,5.45-43.72,7.38-65.76,5.68-5.1-.39-10.89-.75-14.61,2.75-2.2,2.07-3.18,5.1-4.04,8-9.38,31.28-15.62,65.94-2.52,95.84,10.53,24.02,33.84,42.25,59.84,45.64,38.44,5.01,75.39-21.89,94.15-55.81,18.76-33.92,23.14-73.68,26.84-112.27-5.72,3.7-13.63,4.36-19.3.59-5.67-3.78-7.98-12.3-4.08-17.88s13.8-5.76,17.13.19c5.65-15.39,7.51-32.16,5.37-48.41-9.8,2.48-20.79-5.83-21.09-15.93s10.2-19.03,20.13-17.13c-6.09-19.51-22.23-33.83-35.58-49.32-20.06-23.26-34.65-50.64-49.06-77.77-11.73-22.06-23.47-44.15-33.34-67.1-15.53-36.09-26.33-74.01-37.09-111.81-1.66-5.83-3.07-12.85.99-17.35,5.2-5.76,17.39-4.93,18.36-12.63-3.68-10.27-22.69-5.75-27.06-15.74-1.36-3.11-.72-6.69-.05-10.02,3.79-18.99,8.96-38.25,11.31-57.44-11.52-.1-21.92,8.45-31.4,14.16-13.94,8.4-27.63,17.21-41.05,26.42Z"/>
      <path class="cls-4" d="M248.6,670.24c-2.08,3.27-2.37,7.6-.76,11.13.35.76.79,1.5,1.44,2.03.71.58,1.6.86,2.47,1.14,1.87.59,3.84,1.18,5.76.8,2.73-.53,4.79-3.01,5.46-5.7s.18-5.56-.71-8.19c-.44-1.29-.99-2.58-1.98-3.52-3.35-3.18-9.44-1.23-11.69,2.31Z"/>
      <path class="cls-4" d="M247.03,707.52c-.73,3.23-.89,7.17,1.69,9.24,2,1.6,4.97,1.39,7.29.29,3.7-1.75,6.35-5.73,6.16-9.82-.17-3.63-3.78-8.76-7.8-8.95-4.39-.21-6.55,5.77-7.33,9.24Z"/>
      <path class="cls-4" d="M355.33,626.99l-2.66,18.91c-.09.63-.16,1.33.23,1.83.39.5,1.1.6,1.74.66,22.31,2.1,44.76,2.83,67.16,2.19,3.05-.09,6.5-.38,8.44-2.74,1.26-1.53,1.58-3.59,1.83-5.56.52-4.16.88-8.34,1.08-12.53.04-.77.06-1.58-.29-2.27-.82-1.6-3.06-1.64-4.86-1.49-24.36,1.98-49.07-4.65-73.18-.67-.5,5.45-1,10.89-1.51,16.34"/>
      <path class="cls-4" d="M235.52,770.35c22.68-1.78,45.48-1.95,68.18-.51,2.48.16,5.05.32,7.36-.58,3.66-1.43,5.89-5.32,6.45-9.21s-.26-7.83-1.08-11.67c-.16-.74-.37-1.57-1.03-1.95-.42-.24-.94-.24-1.43-.23-18.19.33-36.38.66-54.57.99-5.3.1-17.86-2.14-21.88,1.97s-1.88,16.02-2,21.19Z"/>
      <path class="cls-10" d="M397.92,125.49c-2.48,1.1-5.1,2.14-6.92,4.14-1.91,2.11-2.68,4.98-3.37,7.75-4.11,16.63-7.42,33.46-9.89,50.42-.38,2.59-.64,5.55,1.09,7.52,1.61,1.83,4.31,2.09,6.74,2.34,11.56,1.2,22.81,5.25,32.47,11.71,1.12.75,2.32,1.7,2.43,3.05.13,1.61-1.36,2.83-2.69,3.74-9.37,6.41-18.74,12.83-28.11,19.24-2.11,1.44-4.37,3.09-5.02,5.56-.43,1.63-.09,3.35.28,4.99,15.07,68.68,51.16,130.61,86.74,191.26,16.21,27.63,32.64,55.55,54.97,78.51.35-6.2-2.95-11.93-6-17.34-25.85-45.89-40.6-97.04-55.13-147.67-6.4-22.31-12.82-44.67-17.21-67.46-3.86-20.04-6.15-40.35-8.44-60.63,0-25.84-5.98-53.07-8.88-78.77-.56-4.97-1.05-35.82-5.62-37.09-1.97-.55-10.05,8.32-11.97,9.74-4.81,3.55-10,6.57-15.46,9Z"/>
      <path class="cls-4" d="M500.35,302.65c-.05-34.17,2.01-68.34,6.17-102.26.91-7.43,1.59-15.96-3.55-21.4-10.07,2.8-14.13,15.35-23.29,20.38-1.23.67-2.71,1.21-4.01.68-.98-.4-1.64-1.31-2.25-2.18-4.14-5.96-12.72-24.31-20-24.89.02,22.57,7.64,47.14,15.33,68.19,4.02,10.99,8.72,21.73,14.09,32.14,3.39,6.58,17.51,22.6,17.51,29.34Z"/>
      <path class="cls-4" d="M564.07,211.46c1.44,23.42,2.89,46.95,7.89,69.88.26,1.21.6,2.52,1.57,3.29,2.42,1.9,5.62-1.1,7.16-3.76,17.35-29.88,28.28-63.46,31.85-97.83-3.29,4.24-6.57,8.47-9.86,12.71-1.32,1.7-2.81,3.52-4.91,4.01-2.97.69-5.77-1.51-8.03-3.55-4.61-4.17-17.08-20.29-24.58-15.5-6.41,4.09-1.09,24.37-1.09,30.76Z"/>
      <path class="cls-4" d="M448.07,98.53c-3.12,15.4-2.96,31.88,3.37,46.27,4.44,10.1,11.66,18.68,18.79,27.11,1.05,1.24,2.34,2.59,3.96,2.49,1.13-.07,2.07-.84,2.92-1.58,15.02-12.93,30.04-25.86,45.06-38.79,3.33-2.87,6.99-7.23,4.91-11.11-.79-1.47-2.25-2.42-3.64-3.33-21.11-13.8-39.53-31.71-53.91-52.43,10.83-5.96,23.13-8.72,35.37-10.38,18.84-2.56,38.01-2.68,56.88-.36,13.87,1.7,28.66,5.35,37.6,16.08-14.48,16.87-31.4,31.64-50.07,43.71-1.77,1.15-3.81,2.82-3.36,4.89.19.88.82,1.58,1.42,2.25,14.96,16.46,29.92,32.91,44.88,49.37,2.19,2.41,4.82,5.02,8.08,4.92,3.7-.12,6.27-3.64,8.05-6.88,15.81-28.75,16.69-64.37,6.09-95.42-2.9-8.51-6.98-17.19-14.42-22.23-6.41-4.34-14.42-5.39-22.1-6.32-27.72-3.36-55.55-6.72-83.46-6.06-12.11.29-26.61,1.9-32.29,13.68-6.25,12.96-11.25,29.94-14.14,44.14Z"/>
      <path class="cls-9" d="M557.47,484.42c-3.34,4.26-6.55,8.81-8.14,14.1-1.23,4.07-1.44,8.41-1.65,12.68-.64,13.29-1.28,26.59-1.93,39.88-.18,3.74-.01,8.23,2.97,10.18,2.45,1.6,5.6.64,8.3-.41,33.14-12.83,64.11-31.49,93.21-52.77,8.29-6.06,16.69-12.63,21.72-21.94,3.88-7.19,5.46-15.5,7.18-23.6,4.3-20.27,9.85-40.25,16.57-59.75,1.32-3.83,10.63-21.4,5.35-24.67-3.74-2.32-14.05,8.59-17.52,11.13-27.38,20-57.28,35.69-84.52,55.92-15.21,11.3-29.58,24.03-41.54,39.24Z"/>
      <path class="cls-3" d="M559.61,580.81c-1.83.75-3.73,1.52-5.07,2.9-1.61,1.65-2.18,3.92-2.64,6.09-2.3,10.85-3.27,21.94-2.86,32.98.07,1.83.21,3.76,1.3,5.28,2.4,3.35,7.78,3.04,12.03,2.17,43.82-9.03,79.79-36.82,113.87-63.7,2.01-1.58,4.11-3.3,4.83-5.64.56-1.83.18-3.78-.2-5.65-1.35-6.63-1.86-30.08-11.38-31.47-7.65-1.11-27.83,16.28-34.64,20.22-24.07,13.92-49.24,26.24-75.24,36.83Z"/>
      <path class="cls-6" d="M505.38,162.31c6.25,8.51,12.51,17.02,18.76,25.52.43.58.87,1.18,1.49,1.56.81.5,1.82.56,2.77.61,5.67.27,11.34.55,17.01.82,1.12.05,2.27.1,3.31-.32,1.31-.53,2.22-1.72,3.07-2.85,4.5-6.02,8.99-12.05,13.49-18.07.37-.49.75-1.04.7-1.65-.04-.57-.45-1.03-.84-1.45-8.91-9.67-17.82-19.33-26.73-29-3.17-3.44-30.82,27.83-33.03,24.82Z"/>
      <path class="cls-6" d="M511.34,327.72c-.77,3.26-1.58,6.58-1.31,9.92.27,3.47,1.68,6.72,3.01,9.94,7.21,17.4,12.69,35.52,16.34,54,6.51-19.3,13.02-38.6,19.52-57.9.85-2.51,1.7-5.03,2.03-7.66.45-3.49-.02-7.02-.45-10.51-4.98-40.34-4.61-81.11-5.47-121.74-.04-1.99-.27-4.32-1.97-5.36-.89-.54-1.98-.59-3.02-.62-14.79-.42-12.46,4.69-13.07,18.19-.58,12.83-1.57,25.64-2.97,38.4-2.7,24.68-6.93,49.19-12.65,73.35Z"/>
      <path class="cls-7" d="M673.61,162.38c6.17,17.33,7.6,36.93,1.34,54.22-5.18,14.3-15.17,26.14-25.68,36.86-25.14,25.64-54.79,47.32-73.96,77.99-24.44,39.11-28.78,88.14-26.37,134.64,7.49-11.69,16.77-22.14,27.39-30.85,10.35-8.49,21.89-15.27,33.44-21.91,43.65-25.11,88.13-48.7,133.31-70.71,21.21-10.33,42.97-20.58,60.22-37,4.47-4.25,8.72-9.11,10.53-15.1,1.91-6.35.86-13.23-.57-19.71-8.82-39.86-31.71-75.84-62.21-101.84-19.99-17.04-43.16-29.89-67.65-38.48-6.14-2.15-12.36-4.04-18.65-5.66s-11.54-4.24-10.22,3.1c.85,4.69,8.38,12.11,10.85,16.53,3.21,5.73,6.02,11.71,8.24,17.93Z"/>
      <path class="cls-1" d="M743.24,150.56c9.37,13.9,3.03,31.29-1.51,39.63-8.59,15.78-15.77,27.2-30.98,36.77-31.37,19.73-69.55,18.44-95.61,44.8"/>
      <path class="cls-5" d="M681.94,587.56c-32.91,20.55-66.47,41.38-104.01,51.19-10.02,2.62-21.4,5.22-26.74,14.09-5.43,9.03-2.2,20.46-1.37,30.96.68,8.7-.43,17.47.19,26.18,1.03,14.44,6.8,28.93,3.45,43.02,10.84-1.04,21.62-2.71,32.27-5.01,15.1-3.26,30.06-7.82,43.49-15.45,8.76-4.97,16.75-11.19,24.49-17.64,14.85-12.38,28.98-25.83,40.4-41.44,6.68-9.13,12.48-19.18,14.8-30.26,2.9-13.87.03-28.06-4.77-41.16-2.29-6.26-4.69-13.96-8.51-19.46s-9.38,2.27-13.68,4.96Z"/>
      <path class="cls-8" d="M607.73,759.87c11.74-2.3,50.68-19.52,73.92-53.36,7.09-10.33,17.19-18.69,23.75-23.78,3.09-2.4,7.6-.78,8.53,3.02,5.2,21.32,20.06,57.87,18.31,87.16-.94,15.65-6.97,30.5-13.44,44.78-5.98,13.21-12.4,26.22-19.23,39-18.58,34.73-41.4,68.9-74.98,89.47-20.71,12.68-44.9,19.59-69.18,19.75-7.39.05-14.86-.53-21.93-2.7-10.29-3.17-19.29-9.59-27.38-16.7-14.06-12.35-25.91-26.96-37.68-41.49-10.54-13-21.35-26.56-26.46-42.35-.95-2.94.83-6.07,3.83-6.83,11.22-2.84,22.4-5.96,32.81-10.97,12.07-5.8,23.18-14.4,29.71-26.09,3.1-5.55,5.11-11.68,8.52-17.05,6.65-10.46,18.47-16.03,30.2-14.4,3.41.47,6.42-2.2,6.19-5.63s-.56-7.45-.84-10.7,2.42-6.22,5.68-5.84c15.69,1.8,41.87-3.44,49.67-5.28"/>
    </g>
  </g>
</svg>